<svg id="Header" xmlns="http://www.w3.org/2000/svg" width="179" height="30" viewBox="0 0 179 30">
  <defs>
    <style>
      .cls-1 {
        fill: #fff;
        fill-rule: evenodd;
      }
    </style>
  </defs>
  <g id="Logo">
    <path class="cls-1" d="M25.663,4.325l1.118,0.04a4.325,4.325,0,0,1,.958.04h1.518a1.079,1.079,0,0,1,.759.96h-0.04l-0.04.24H29.9v0.12l-0.08.04v0.08l-0.959.92-2.8,2.841H21.79l-0.959,1-0.2.16a8.526,8.526,0,0,1-.958,1l-1.318,1.361a5.926,5.926,0,0,0-.719.64L15.6,15.846H15.48l-0.04.08-0.2.04v0.04a1.2,1.2,0,0,1-.759-0.16l-0.2-.24-0.08-.04-0.04-.16h-0.04v-0.08h-0.04v-0.08h-0.04v-0.48h0.04l0.04-.16h0.04v-0.12l0.08-.04v-0.08h0.04a0.448,0.448,0,0,0,.12-0.2h0.08a0.226,0.226,0,0,1,.2-0.2v-0.08h0.08v-0.08h0.08v-0.08h0.08v-0.08H15c0.029-.111.011-0.09,0.12-0.12v-0.08H15.2v-0.08h0.08v-0.08h0.08v-0.08h0.08v-0.08h0.08c0.029-.111.011-0.09,0.12-0.12v-0.08h0.08v-0.08H15.8v-0.08h0.08v-0.08h0.08v-0.08h0.08c0.029-.111.011-0.089,0.12-0.12v-0.08h0.08v-0.08h0.08v-0.08H16.4v-0.08h0.08v-0.08h0.08c0.029-.111.011-0.089,0.12-0.12v-0.08h0.08v-0.08h0.08a2.189,2.189,0,0,1,.559-0.6v-0.04l1.318-1.281a1.939,1.939,0,0,1,.559-0.52V9.285h0.08V9.205h0.08V9.125h0.08c0.029-.111.011-0.09,0.12-0.12V8.925h0.08V8.845h0.08V8.765h0.08V8.685h0.08V8.6c0.11-.029.089-0.011,0.12-0.12h0.08V8.4h0.08V8.325h0.08V8.245h0.08a10.12,10.12,0,0,0,.04-1.56v-2.8a1.762,1.762,0,0,0,.2-0.2,7.42,7.42,0,0,0,.879-0.841l2.037-2,0.559-.6h0.08l0.04-.08h0.08l0.04-.08A0.978,0.978,0,0,1,24.865,0v0.04h0.12v0.04h0.08l0.04,0.08h0.12V0.2l0.24,0.2v0.08H25.5v0.08h0.04v0.12h0.04v0.68c0.069,0.247-.03.666,0.04,0.92h0.04v2.04Zm-7.348,1.76-0.359-.12V5.925l-0.24-.04V5.845h-0.08V5.805L17.4,5.765V5.725h-0.12V5.685L17,5.645V5.6l-0.28-.04V5.525l-1.557-.28H14.641V5.2a5.318,5.318,0,0,0-1.278.04H12.844v0.04H12.525v0.04h-0.28v0.04h-0.2V5.4h-0.24v0.04h-0.16v0.04l-0.359.04L9.849,6v0.04l-0.16.04v0.04H9.61V6.165H9.49V6.2l-0.24.08v0.04H9.17v0.04H9.09V6.4l-0.24.08-0.04.08-0.24.08-0.04.08-0.16.04-0.04.08-0.16.04v0.04l-0.12.04-0.04.079H7.932l-0.08.12H7.773l-0.04.08H7.653l-0.08.12H7.493l-0.08.12H7.333l-0.12.16H7.134l-0.2.24H6.854l-0.28.32L5.9,8.845v0.08l-0.24.2v0.08l-0.16.12v0.08l-0.12.08v0.08l-0.12.08v0.08l-0.08.04v0.08l-0.12.08v0.08l-0.08.04v0.08l-0.08.04-0.04.159-0.08.041-0.04.16-0.08.04-0.08.24-0.08.04v0.08H4.458v0.08H4.418v0.08H4.378v0.08H4.338v0.08H4.3l-0.08.24H4.178v0.12H4.138v0.08H4.1v0.08H4.059v0.08H4.019v0.12H3.979v0.08H3.939l-0.04.24H3.859v0.08H3.819l-0.4,1.44-0.08.72H3.3v0.32H3.26v0.52H3.22a5.325,5.325,0,0,0,.04,1.28v0.52H3.3v0.32H3.34v0.28H3.38v0.2H3.42v0.24H3.46v0.16H3.5v0.2h0.04v0.16h0.04l0.04,0.28h0.04v0.12H3.7v0.16h0.04v0.12h0.04v0.12h0.04v0.12h0.04v0.08H3.9l0.04,0.24h0.04v0.08h0.04v0.12h0.04l0.04,0.16h0.04v0.08h0.04v0.12h0.04l0.08,0.24h0.04v0.08h0.04v0.08h0.04l0.08,0.24,0.08,0.04,0.08,0.24,0.08,0.04,0.04,0.16,0.08,0.04,0.04,0.16,0.08,0.04v0.08h0.04l0.04,0.12,0.08,0.04v0.08l0.12,0.08v0.08l0.12,0.08v0.08l0.12,0.08v0.08l0.16,0.12v0.08l0.24,0.2v0.08l0.679,0.64,0.28,0.32h0.08l0.2,0.24h0.08l0.12,0.16h0.08l0.08,0.12h0.08l0.08,0.12h0.08l0.08,0.12h0.08l0.04,0.08h0.08l0.04,0.08,0.12,0.04v0.04l0.16,0.04,0.04,0.08,0.16,0.04,0.04,0.08,0.24,0.08,0.04,0.08h0.08v0.04h0.08v0.04H9.09v0.04H9.17v0.04H9.25v0.04H9.33v0.04l0.24,0.08v0.04l0.2,0.04v0.04h0.08v0.04h0.12v0.04h0.08v0.04l0.239,0.04v0.04h0.08v0.04l0.359,0.08v0.04h0.16v0.04h0.12v0.04l0.279,0.04v0.04h0.16v0.04l0.359,0.04v0.04h0.24v0.04h0.2v0.04h0.28v0.04l0.839,0.04v0.041a5.289,5.289,0,0,0,1.278-.041l0.839-.04v-0.04H15.76v-0.04h0.2v-0.04H16.2v-0.04h0.16v-0.04l0.359-.04v-0.04h0.12v-0.04H17v-0.04h0.12v-0.04h0.16v-0.04H17.4V26.247h0.12v-0.04h0.12v-0.04h0.08v-0.04l0.24-.04v-0.04h0.08v-0.04h0.12v-0.04l0.16-.04v-0.04H18.4v-0.04h0.12v-0.04l0.24-.08v-0.04h0.08v-0.04h0.08v-0.04l0.24-.08,0.04-.08,0.239-.08,0.04-.08,0.16-.04,0.04-.08,0.16-.04,0.04-.08h0.08v-0.04l0.12-.04,0.04-.08h0.08l0.04-.08,0.12-.04,0.08-.12h0.08l0.08-.12h0.08l0.12-.16h0.08l0.2-.24h0.08l0.4-.44,0.559-.52v-0.08l0.24-.2v-0.08l0.16-.12v-0.08l0.12-.08v-0.08l0.12-.08,0.04-.12,0.08-.04v-0.08l0.08-.04,0.04-.12h0.04v-0.08l0.08-.04,0.04-.16,0.08-.04,0.04-.16,0.08-.04,0.08-.24,0.08-.04v-0.08h0.04v-0.08h0.04v-0.08h0.04v-0.08h0.04v-0.08h0.04v-0.08h0.04l0.08-.24h0.04v-0.12h0.04l0.04-.16h0.04l0.479-1.44,0.04-.36h0.04v-0.16h0.04v-0.24h0.04v-0.2h0.04l0.08-.72v-0.4h0.04a5.324,5.324,0,0,0-.04-1.28q-0.02-.42-0.04-0.84h-0.04v-0.28h-0.04v-0.2h-0.04v-0.24h-0.04l-0.04-.36h-0.04v-0.16h-0.04l-0.04-.28h-0.04v-0.12h-0.04v-0.16h-0.04v-0.12h-0.04v-0.12h-0.04v-0.12h-0.04v-0.08h-0.04l-0.04-.24h-0.04l-0.12-.36a9.654,9.654,0,0,0,2.556-.12l0.519-.08v-0.04L27.1,11.4v-0.04c0.078-.019.053,0.024,0.08,0.04a1.673,1.673,0,0,1,.2.6c0.178,0.455.252,1.027,0.4,1.52l0.04,0.52h0.04v0.28H27.9v0.4h0.04v0.52a4.516,4.516,0,0,1,0,1.52v0.52H27.9v0.4H27.86v0.28H27.82v0.28c-0.056.188-.1,0.458-0.16,0.64v0.2H27.62v0.16H27.58v0.159H27.54v0.16H27.5v0.16H27.46v0.16H27.42v0.12h-0.04v0.12h-0.04v0.12H27.3l-0.04.28h-0.04v0.08h-0.04l-0.08.36h-0.04v0.08h-0.04v0.12h-0.04l-0.04.2H26.9v0.08h-0.04v0.12h-0.04l-0.08.239H26.7v0.08h-0.04v0.12h-0.04l-0.08.24H26.5v0.08h-0.04l-0.08.24-0.08.04v0.08h-0.04v0.08h-0.04v0.08h-0.04v0.08l-0.08.04-0.08.24-0.08.04v0.08l-0.08.04-0.04.16-0.08.04v0.08l-0.08.04v0.08l-0.08.04v0.08h-0.04l-0.04.12-0.08.04v0.079l-0.12.08v0.08l-0.12.08v0.08l-0.12.08v0.08l-0.16.12v0.08l-0.16.12a8.927,8.927,0,0,1-1.038,1.121l-0.4.44h-0.08l-0.2.24h-0.08l-0.16.2h-0.08l-0.12.16h-0.08l-0.08.12h-0.08l-0.08.12h-0.08l-0.08.12h-0.08l-0.04.08-0.12.04v0.04H21.79l-0.04.079H21.67l-0.04.08H21.55l-0.04.08-0.16.04-0.04.08-0.12.04v0.04h-0.08v0.04h-0.08v0.04h-0.08l-0.04.079h-0.08v0.04h-0.08v0.04h-0.08v0.04h-0.08l-0.04.08-0.24.08v0.04h-0.08v0.04l-0.239.08v0.04h-0.12v0.04h-0.08v0.041l-0.24.08v0.04h-0.12v0.04h-0.08v0.04h-0.12v0.04h-0.08v0.04h-0.12v0.04h-0.08v0.04l-0.359.08v0.04h-0.08v0.04l-0.28.04v0.04h-0.12v0.04H18v0.04h-0.12v0.04h-0.16v0.04h-0.16v0.04H17.4v0.04h-0.16v0.04h-0.16v0.04h-0.2v0.04h-0.2v0.04h-0.2v0.04h-0.24v0.04l-0.559.04v0.04l-1.6.08-1.4-.04v-0.04H12.325v-0.04h-0.32l-1.877-.4a14.077,14.077,0,0,1-2.716-1.16H7.333v-0.04H7.253v-0.04H7.174v-0.04H7.094l-0.04-.079-0.24-.08v-0.04l-0.12-.04-0.04-.08-0.16-.04v-0.04l-0.12-.04-0.04-.08H6.255l-0.04-.079H6.135v-0.04l-0.12-.04-0.04-.08H5.9l-0.08-.12H5.736l-0.08-.12H5.576l-0.08-.12H5.416l-0.12-.16H5.217l-0.08-.12H5.1l-0.04-.08H4.977l-0.2-.24H4.7l-0.479-.52-0.679-.64v-0.08l-0.24-.2v-0.08l-0.2-.16v-0.08l-0.16-.12v-0.08l-0.12-.08v-0.08l-0.12-.08v-0.08l-0.12-.08V24.047l-0.08-.04-0.04-.12H2.421v-0.08l-0.08-.04v-0.08l-0.08-.04v-0.08l-0.08-.04-0.04-.16-0.08-.04-0.04-.12H1.982l-0.08-.24-0.08-.04v-0.08H1.782v-0.08H1.742v-0.08H1.7v-0.08A14,14,0,0,1,.544,19.886l-0.04-.32H0.464v-0.16H0.425V19.246H0.385v-0.16H0.345v-0.2H0.3l-0.04-.4H0.225v-0.24H0.185v-0.28H0.145l-0.04-.68H0.065v-0.52a4.514,4.514,0,0,1,0-1.52v-0.52h0.04l0.04-.68h0.04v-0.28c0.056-.188.1-0.458,0.16-0.64v-0.2h0.04v-0.16h0.04v-0.16h0.04v-0.16H0.5v-0.16h0.04v-0.16h0.04v-0.12h0.04v-0.12h0.04v-0.12H0.7v-0.16h0.04v-0.12h0.04V11.4h0.04l0.08-.36h0.04v-0.08h0.04v-0.12h0.04v-0.08h0.04v-0.12H1.1v-0.08h0.04v-0.12h0.04l0.08-.24H1.3v-0.08h0.04v-0.12h0.04l0.08-.24H1.5V9.685h0.04l0.08-.24,0.08-.04V9.325h0.04V9.245h0.04V9.165h0.04V9.085l0.08-.04,0.08-.24h0.04l0.04-.12,0.08-.04,0.04-.16h0.04l0.04-.12,0.08-.04V8.245h0.04l0.04-.119L2.5,8.085V8l0.12-.08V7.845L2.7,7.8V7.725l0.12-.08V7.565l0.12-.08V7.4l0.16-.12V7.2l0.12-.08V7.085L3.3,7.044V6.965l0.24-.2V6.685l0.6-.56,0.559-.6h0.08l0.2-.24h0.08l0.16-.2H5.3l0.12-.16H5.5l0.08-.12h0.08l0.08-.12h0.08l0.04-.08h0.08l0.08-.12H6.1l0.04-.08h0.08l0.04-.08h0.08l0.04-.08h0.08l0.04-.08,0.16-.04,0.04-.08L6.814,4V3.964h0.08V3.924h0.08V3.884h0.08l0.04-.08h0.08V3.764h0.08V3.724h0.08V3.685h0.08l0.04-.08h0.08V3.564l0.24-.08V3.444l0.24-.08V3.324h0.12V3.284h0.08V3.244l0.24-.08V3.124h0.12V3.084h0.08V3.044h0.12V3h0.08V2.964h0.12V2.924H9.05V2.884L9.41,2.8V2.764H9.49V2.724l0.28-.04V2.644h0.12V2.6h0.12V2.564h0.12V2.524l0.319-.04V2.444h0.16V2.4h0.16V2.365h0.16V2.324h0.2V2.284l0.4-.04V2.2h0.24V2.164h0.28V2.124h0.28V2.084h0.359V2.044h0.559a4.492,4.492,0,0,1,1.518,0H15.32v0.04h0.36v0.04h0.279v0.04h0.28V2.2l0.439,0.04v0.04l0.4,0.04V2.365L17.4,2.4v0.04h0.16v0.04h0.16v0.04h0.16v0.04H18V2.6h0.12v0.04h0.12v0.04H18.4v0.04h0.12v0.04l0.2,0.04v0.04a1.158,1.158,0,0,0-.2.24v0.2h-0.04v0.16h-0.04V3.6H18.4v0.16h-0.04v0.16h-0.04v2.16Zm3.434,6.641,0.12,0.4h0.04v0.12h0.04v0.12h0.04v0.12h0.04l0.04,0.28h0.04l0.24,1.24v0.44h0.04v0.6a5.43,5.43,0,0,1-.16,1.48l-0.04.4h-0.04l-0.04.32h-0.04l-0.04.281h-0.04v0.12h-0.04v0.12h-0.04v0.12H21.87v0.08H21.83v0.12H21.79v0.08H21.75v0.12H21.71l-0.04.16H21.63v0.08H21.59v0.12H21.55l-0.04.16H21.47l-0.04.16-0.08.04-0.08.24-0.08.04-0.04.16h-0.04l-0.04.12-0.08.04v0.08h-0.04l-0.04.12-0.08.04v0.08l-0.12.08v0.08l-0.12.08v0.08l-0.2.16v0.08l-0.4.36-0.519.56h-0.08l-0.16.2h-0.08l-0.08.12h-0.08l-0.08.12h-0.08l-0.04.08-0.12.04v0.04h-0.08l-0.04.08-0.12.04v0.04l-0.16.04-0.04.08-0.24.08-0.04.08-0.16.04v0.04l-0.16.04v0.04h-0.12v0.04h-0.08v0.04l-0.16.04v0.04h-0.12v0.04h-0.08v0.04l-0.2.04v0.04h-0.12v0.04h-0.12v0.04h-0.12v0.04l-0.28.04v0.04l-0.32.041v0.04h-0.2v0.04h-0.2v0.04H15.28v0.04H15v0.04H14.562a4.879,4.879,0,0,1-1.837-.08h-0.24l-1.358-.36v-0.04h-0.08v-0.04h-0.12v-0.04h-0.08v-0.04h-0.12v-0.04l-0.16-.04v-0.04h-0.08v-0.04l-0.359-.12-0.04-.08h-0.08v-0.04H9.929v-0.04H9.849v-0.04H9.769l-0.04-.08-0.16-.04-0.04-.08H9.45l-0.04-.08H9.33v-0.04l-0.12-.04-0.04-.08H9.09l-0.08-.12H8.931l-0.08-.12H8.771l-0.16-.2H8.531l-0.679-.72-0.24-.2v-0.08l-0.2-.16v-0.08l-0.12-.08v-0.08l-0.12-.08v-0.08l-0.08-.04v-0.08l-0.08-.04v-0.08l-0.08-.04v-0.08l-0.08-.04-0.04-.16-0.08-.04v-0.08H6.694v-0.08H6.654v-0.08H6.614V19.926l-0.08-.04-0.12-.36H6.375v-0.08H6.335l-0.04-.16H6.255v-0.12H6.215v-0.08H6.175v-0.12H6.135v-0.08H6.1v-0.12H6.055v-0.12H6.015v-0.12H5.975v-0.16H5.936v-0.12H5.9l-0.24-1.24v-0.44H5.616a4.414,4.414,0,0,1,.04-1.12v-0.44c0.081-.285.112-0.651,0.2-0.92v-0.16H5.9v-0.16h0.04v-0.12h0.04v-0.16h0.04v-0.12h0.04v-0.12H6.1v-0.12h0.04v-0.08h0.04v-0.12h0.04v-0.08h0.04v-0.12h0.04l0.04-.16h0.04v-0.08h0.04v-0.12h0.04l0.04-.16h0.04v-0.08l0.08-.04v-0.08h0.04v-0.08h0.04v-0.08h0.04v-0.08l0.08-.04,0.04-.16h0.04l0.04-.12,0.08-.041V11.326h0.04l0.04-.12,0.08-.04v-0.08l0.12-.08v-0.08l0.12-.08v-0.08l0.2-.16v-0.08l0.479-.44,0.439-.48h0.08l0.16-.2h0.08l0.08-.12h0.08l0.08-.12H9.17l0.04-.08,0.12-.04V9H9.41l0.04-.08,0.12-.04V8.845l0.16-.04,0.04-.08,0.24-.08V8.6h0.08l0.04-.08,0.359-.12V8.365h0.08V8.325l0.16-.04V8.245h0.12V8.2h0.08V8.165h0.12V8.125h0.08V8.085h0.12V8.045h0.12V8h0.12V7.965l0.28-.04V7.885h0.16V7.845h0.16V7.8h0.2V7.765h0.2V7.725h0.24V7.685H13V7.645h0.439a4.394,4.394,0,0,1,1.118-.04v0.04H15v0.04h0.28v0.04h0.24V7.765h0.2V7.8l0.359,0.04v0.04h0.16v0.04l0.28,0.04V8h0.12v0.04h0.12v0.04h0.12V8.125h0.08v0.04a1.015,1.015,0,0,1,.4.16h-0.04a1.193,1.193,0,0,1-.239.24l-0.479.48-0.439.48-0.2.16v0.08l-0.12.04-0.04.08-0.2.16-0.2.28H15.32l-0.479.52h-0.4a3.023,3.023,0,0,0-.879-0.04v0.04H13.2v0.04H13v0.04H12.8v0.04h-0.16v0.04h-0.12v0.04h-0.16v0.04h-0.08v0.04l-0.24.041v0.04l-0.16.04v0.04h-0.12v0.04h-0.08v0.04h-0.08l-0.04.08-0.24.08-0.04.08-0.16.04-0.08.12h-0.08l-0.04.08h-0.08l-0.12.16a5.158,5.158,0,0,0-1.637,2.24l-0.04.28H9.011v0.12H8.971v0.16H8.931v0.2a4.094,4.094,0,0,0,0,2l0.04,0.361h0.04v0.12H9.05l0.04,0.28H9.13v0.08H9.17v0.12H9.21l0.04,0.16H9.29l0.12,0.36,0.08,0.041,0.04,0.16,0.08,0.04,0.04,0.16,0.12,0.08,0.04,0.12h0.04v0.08l0.16,0.12a5.142,5.142,0,0,0,2.8,1.8H13v0.04h0.2v0.04h0.359v0.04a2.685,2.685,0,0,0,.879-0.04H14.8v-0.04H15v-0.04h0.2v-0.04h0.16v-0.04h0.12v-0.04h0.16v-0.04h0.08v-0.04l0.24-.04v-0.04l0.16-.04v-0.04l0.36-.12,0.04-.08,0.16-.04,0.04-.08H16.8v-0.04h0.08l0.08-.12h0.08l0.04-.08h0.08l0.12-.16h0.08l0.359-.4,0.28-.24v-0.08l0.16-.12v-0.08l0.08-.04v-0.08l0.12-.08v-0.08H18.4v-0.08l0.08-.04,0.04-.16,0.08-.041v-0.08h0.04l0.04-.16h0.04v-0.12h0.04l0.04-.16h0.04l0.04-.2h0.04l0.04-.28h0.04v-0.12h0.04v-0.16h0.04v-0.2h0.04v-0.2h0.04v-0.36a4.954,4.954,0,0,0,0-1.24l0.279-.2,0.04-.12,0.479-.4v-0.08h0.04l0.16-.2h0.08l0.04-.08h0.04l0.359-.44h0.08l0.08-.12,0.08-.04v-0.08l0.24-.2,0.04-.08h0.08l0.08-.12,0.08-.04v-0.08h0.04l0.16-.2h0.12Z"/>
    <path id="Dart_service_manager" data-name="Dart service manager" class="cls-1" d="M44.965,13a5.409,5.409,0,0,0,2.73-.66,4.508,4.508,0,0,0,1.785-1.86,5.985,5.985,0,0,0,.63-2.82,6.2,6.2,0,0,0-.57-2.677,4.461,4.461,0,0,0-1.718-1.92,5.326,5.326,0,0,0-2.857-.712h-3.69V13h3.69ZM48.31,9.768a3.483,3.483,0,0,1-1.275,1.485,3.711,3.711,0,0,1-2.07.548h-2.34V3.55h2.34a3.805,3.805,0,0,1,2.055.525A3.4,3.4,0,0,1,48.3,5.53a4.9,4.9,0,0,1,.442,2.13A4.95,4.95,0,0,1,48.31,9.768ZM50.515,13h1.44l1.2-3.12h4.581L58.93,13h1.44L56.02,2.35H54.88Zm3.043-4.17L55.45,3.91l1.884,4.92H53.558ZM63.145,13V9.175h2.82L68.395,13h1.53l-2.58-4.08a2.749,2.749,0,0,0,1.177-.645A3.2,3.2,0,0,0,69.3,7.15a3.564,3.564,0,0,0,.278-1.4,3.344,3.344,0,0,0-.24-1.237,3.647,3.647,0,0,0-.675-1.1,3.386,3.386,0,0,0-1.02-.78,2.844,2.844,0,0,0-1.29-.292h-4.56V13h1.35Zm0-9.45H66.28a1.655,1.655,0,0,1,.96.3,2.249,2.249,0,0,1,.7.8,2.293,2.293,0,0,1,.27,1.1,2.609,2.609,0,0,1-.232,1.095,2.065,2.065,0,0,1-.645.818,1.574,1.574,0,0,1-.968.307H63.145V3.55Zm16.1-1.2h-8.7v1.2h3.675V13h1.35V3.55H79.24V2.35ZM48.475,18.46a8.067,8.067,0,0,0-1.065-.555,8.726,8.726,0,0,0-1.3-.45,5.743,5.743,0,0,0-1.455-.18,4.837,4.837,0,0,0-1.965.395,3.33,3.33,0,0,0-1.433,1.162,3.25,3.25,0,0,0-.532,1.9,2.629,2.629,0,0,0,.308,1.326,2.459,2.459,0,0,0,.945.9,8.513,8.513,0,0,0,1.613.678q0.75,0.209,1.328.395a3.591,3.591,0,0,1,.915.417,0.715,0.715,0,0,1,.337.618,0.658,0.658,0,0,1-.322.577,1.849,1.849,0,0,1-1,.212,4.32,4.32,0,0,1-1.2-.172,8.246,8.246,0,0,1-1.088-.39,8.1,8.1,0,0,1-.817-0.413,1.862,1.862,0,0,1-.405-0.285l-1.065,2.16a8.849,8.849,0,0,0,1.38.69,8.978,8.978,0,0,0,1.568.465,8.07,8.07,0,0,0,1.6.165,6.326,6.326,0,0,0,1.477-.171,4.051,4.051,0,0,0,1.29-.55,2.6,2.6,0,0,0,.9-1.011,3.287,3.287,0,0,0,.322-1.51,2.8,2.8,0,0,0-.4-1.576,2.932,2.932,0,0,0-1.148-.974,9.656,9.656,0,0,0-1.77-.662q-0.72-.194-1.215-0.35a2.273,2.273,0,0,1-.758-0.372,0.688,0.688,0,0,1-.262-0.558,0.73,0.73,0,0,1,.345-0.654,1.794,1.794,0,0,1,.975-0.223,3.736,3.736,0,0,1,.96.128,5.648,5.648,0,0,1,.878.307,5.971,5.971,0,0,1,.675.353,2.783,2.783,0,0,1,.322.217Zm4.23,7.38V23.575h4.2v-2H52.7V19.51h4.89V17.35h-7.35V28H57.73V25.84H52.7ZM61.69,28V24.565h1.665L65.395,28H68.11l-2.34-3.96a3.361,3.361,0,0,0,.915-0.765,3.491,3.491,0,0,0,.608-1.065,3.626,3.626,0,0,0,.218-1.245,3.474,3.474,0,0,0-.263-1.32,3.943,3.943,0,0,0-.72-1.155,3.57,3.57,0,0,0-1.1-.825,3.169,3.169,0,0,0-1.41-.315H59.23V28h2.46Zm0-8.49h2.175a0.933,0.933,0,0,1,.532.18,1.389,1.389,0,0,1,.435.5,1.619,1.619,0,0,1,.172.773,1.794,1.794,0,0,1-.15.75,1.317,1.317,0,0,1-.382.51,0.825,0.825,0,0,1-.518.18H61.69V19.51Zm6.135-2.16L71.725,28H74.14l3.87-10.65H75.415L72.94,25.12l-2.5-7.77h-2.61ZM81.46,28V17.35H79V28h2.46Zm1.807-3.427a5.768,5.768,0,0,0,1.087,1.77A5.43,5.43,0,0,0,86.02,27.6a4.722,4.722,0,0,0,2.115.473,5.794,5.794,0,0,0,1.8-.293,5.325,5.325,0,0,0,1.62-.848A3.29,3.29,0,0,0,92.6,25.6L90.58,24.4a2.09,2.09,0,0,1-.608.87,2.48,2.48,0,0,1-.862.473,3.106,3.106,0,0,1-.915.143,2.531,2.531,0,0,1-1.162-.263,2.714,2.714,0,0,1-.885-0.712,3.351,3.351,0,0,1-.57-1.035,3.733,3.733,0,0,1-.2-1.23,3.868,3.868,0,0,1,.173-1.125,3.345,3.345,0,0,1,.517-1.035,2.5,2.5,0,0,1,2.085-1.02,3.541,3.541,0,0,1,.922.128,2.339,2.339,0,0,1,.87.45,2.126,2.126,0,0,1,.623.892L92.47,19.6a4.278,4.278,0,0,0-1.658-1.68,5.065,5.065,0,0,0-2.6-.645,5.269,5.269,0,0,0-2.235.458,5.165,5.165,0,0,0-1.687,1.23,5.393,5.393,0,0,0-1.4,3.608A5.476,5.476,0,0,0,83.267,24.573ZM96.28,25.84V23.575h4.2v-2h-4.2V19.51h4.89V17.35H93.82V28h7.485V25.84H96.28ZM117.159,28V17.35h-2.67l-2.76,5.565-2.76-5.565H106.3V28h2.46V21.64l2.3,4.62h1.335l2.31-4.62V28h2.46Zm1.05,0h2.52l0.727-2.385h3.516L125.694,28h2.52l-3.69-10.65h-2.64Zm3.758-4.065,1.252-4.11,1.244,4.11h-2.5ZM136.584,28h2V17.35h-2.445v6.27L131.2,17.35h-1.95V28h2.46V21.9Zm3.06,0h2.52l0.727-2.385h3.516L147.129,28h2.52l-3.69-10.65h-2.64Zm3.758-4.065,1.252-4.11,1.244,4.11h-2.5ZM157.734,26.8V24.385a4.256,4.256,0,0,1-1.29,1.117,3.042,3.042,0,0,1-1.47.383,2.64,2.64,0,0,1-2.025-.908,3.11,3.11,0,0,1-.585-1.012,3.748,3.748,0,0,1-.21-1.275,3.826,3.826,0,0,1,.2-1.26,3.348,3.348,0,0,1,.563-1.027,2.559,2.559,0,0,1,.862-0.69,2.463,2.463,0,0,1,1.1-.247,2.885,2.885,0,0,1,1.477.4A2.621,2.621,0,0,1,157.4,20.98l1.845-1.38a4.093,4.093,0,0,0-1.68-1.7,5.221,5.221,0,0,0-2.595-.63,5.283,5.283,0,0,0-2.093.413,5.185,5.185,0,0,0-1.687,1.148,5.483,5.483,0,0,0-1.133,1.7,5.2,5.2,0,0,0-.412,2.063,5.833,5.833,0,0,0,.412,2.235,5.323,5.323,0,0,0,1.118,1.725,5.053,5.053,0,0,0,1.627,1.117,4.895,4.895,0,0,0,1.958.4,4.071,4.071,0,0,0,2.97-1.275h0ZM157.569,28h2.055V22.435h-4.095v1.77h2.04V28Zm6.135-2.16V23.575h4.2v-2h-4.2V19.51h4.89V17.35h-7.35V28h7.485V25.84H163.7ZM172.689,28V24.565h1.665L176.394,28h2.715l-2.34-3.96a3.359,3.359,0,0,0,.915-0.765,3.49,3.49,0,0,0,.607-1.065,3.625,3.625,0,0,0,.218-1.245,3.473,3.473,0,0,0-.263-1.32,3.943,3.943,0,0,0-.72-1.155,3.565,3.565,0,0,0-1.1-.825,3.169,3.169,0,0,0-1.41-.315h-4.785V28h2.46Zm0-8.49h2.175a0.932,0.932,0,0,1,.532.18,1.388,1.388,0,0,1,.435.5,1.618,1.618,0,0,1,.173.773,1.793,1.793,0,0,1-.15.75,1.318,1.318,0,0,1-.383.51,0.824,0.824,0,0,1-.517.18h-2.265V19.51Z"/>
  </g>
</svg>
